<mxfile host="app.diagrams.net" modified="2024-01-08T20:31:08.123Z" agent="Mozilla/5.0 (Windows NT 10.0; Win64; x64) AppleWebKit/537.36 (KHTML, like Gecko) Chrome/105.0.0.0 Safari/537.36" etag="ka1r_GXE8f9BJwLeTn3X" version="22.1.17" type="google">
  <diagram name="第 1 页" id="Wx2zoOVBp8VMVDT_RbWG">
    <mxGraphModel grid="1" page="1" gridSize="10" guides="1" tooltips="1" connect="1" arrows="1" fold="1" pageScale="1" pageWidth="827" pageHeight="1169" math="0" shadow="0">
      <root>
        <mxCell id="0" />
        <mxCell id="1" parent="0" />
        <mxCell id="l32V7I5E5iRShW_feiCo-1" value="" style="edgeStyle=orthogonalEdgeStyle;rounded=0;orthogonalLoop=1;jettySize=auto;html=1;" edge="1" parent="1" source="l32V7I5E5iRShW_feiCo-2">
          <mxGeometry relative="1" as="geometry">
            <mxPoint x="400" y="130" as="targetPoint" />
          </mxGeometry>
        </mxCell>
        <mxCell id="l32V7I5E5iRShW_feiCo-2" value="&lt;font style=&quot;vertical-align: inherit;&quot;&gt;&lt;font style=&quot;vertical-align: inherit;&quot;&gt;date_input.py&lt;/font&gt;&lt;/font&gt;" style="shape=process;whiteSpace=wrap;html=1;backgroundOutline=1;strokeWidth=2;" vertex="1" parent="1">
          <mxGeometry x="340" y="30" width="120" height="60" as="geometry" />
        </mxCell>
        <mxCell id="l32V7I5E5iRShW_feiCo-3" value="" style="edgeStyle=orthogonalEdgeStyle;rounded=0;orthogonalLoop=1;jettySize=auto;html=1;" edge="1" parent="1" source="l32V7I5E5iRShW_feiCo-4" target="l32V7I5E5iRShW_feiCo-7">
          <mxGeometry relative="1" as="geometry" />
        </mxCell>
        <mxCell id="l32V7I5E5iRShW_feiCo-4" value="&lt;font style=&quot;vertical-align: inherit;&quot;&gt;&lt;font style=&quot;vertical-align: inherit;&quot;&gt;輸入日期&lt;/font&gt;&lt;/font&gt;" style="ellipse;whiteSpace=wrap;html=1;" vertex="1" parent="1">
          <mxGeometry x="345" y="130" width="110" height="70" as="geometry" />
        </mxCell>
        <mxCell id="l32V7I5E5iRShW_feiCo-5" value="" style="edgeStyle=orthogonalEdgeStyle;rounded=0;orthogonalLoop=1;jettySize=auto;html=1;" edge="1" parent="1" source="l32V7I5E5iRShW_feiCo-7" target="l32V7I5E5iRShW_feiCo-9">
          <mxGeometry relative="1" as="geometry" />
        </mxCell>
        <mxCell id="l32V7I5E5iRShW_feiCo-6" value="" style="edgeStyle=orthogonalEdgeStyle;rounded=0;orthogonalLoop=1;jettySize=auto;html=1;" edge="1" parent="1" source="l32V7I5E5iRShW_feiCo-7" target="l32V7I5E5iRShW_feiCo-11">
          <mxGeometry relative="1" as="geometry" />
        </mxCell>
        <mxCell id="l32V7I5E5iRShW_feiCo-7" value="&lt;font style=&quot;vertical-align: inherit;&quot;&gt;&lt;font style=&quot;vertical-align: inherit;&quot;&gt;是否為有效日期&lt;/font&gt;&lt;/font&gt;" style="rhombus;whiteSpace=wrap;html=1;" vertex="1" parent="1">
          <mxGeometry x="330" y="230" width="140" height="80" as="geometry" />
        </mxCell>
        <mxCell id="l32V7I5E5iRShW_feiCo-8" value="" style="edgeStyle=orthogonalEdgeStyle;rounded=0;orthogonalLoop=1;jettySize=auto;html=1;" edge="1" parent="1" source="l32V7I5E5iRShW_feiCo-9">
          <mxGeometry relative="1" as="geometry">
            <mxPoint x="340" y="450" as="targetPoint" />
          </mxGeometry>
        </mxCell>
        <mxCell id="l32V7I5E5iRShW_feiCo-9" value="&lt;font style=&quot;vertical-align: inherit;&quot;&gt;&lt;font style=&quot;vertical-align: inherit;&quot;&gt;是&lt;/font&gt;&lt;/font&gt;" style="whiteSpace=wrap;html=1;" vertex="1" parent="1">
          <mxGeometry x="310" y="350" width="60" height="60" as="geometry" />
        </mxCell>
        <mxCell id="l32V7I5E5iRShW_feiCo-10" value="" style="edgeStyle=orthogonalEdgeStyle;rounded=0;orthogonalLoop=1;jettySize=auto;html=1;" edge="1" parent="1" source="l32V7I5E5iRShW_feiCo-11" target="l32V7I5E5iRShW_feiCo-14">
          <mxGeometry relative="1" as="geometry" />
        </mxCell>
        <mxCell id="l32V7I5E5iRShW_feiCo-11" value="&lt;font style=&quot;vertical-align: inherit;&quot;&gt;&lt;font style=&quot;vertical-align: inherit;&quot;&gt;否&lt;/font&gt;&lt;/font&gt;" style="whiteSpace=wrap;html=1;" vertex="1" parent="1">
          <mxGeometry x="430" y="350" width="60" height="60" as="geometry" />
        </mxCell>
        <mxCell id="l32V7I5E5iRShW_feiCo-12" value="&lt;font style=&quot;vertical-align: inherit;&quot;&gt;&lt;font style=&quot;vertical-align: inherit;&quot;&gt;end&lt;/font&gt;&lt;/font&gt;" style="strokeWidth=2;html=1;shape=mxgraph.flowchart.terminator;whiteSpace=wrap;" vertex="1" parent="1">
          <mxGeometry x="300" y="450" width="80" height="60" as="geometry" />
        </mxCell>
        <mxCell id="l32V7I5E5iRShW_feiCo-13" value="" style="edgeStyle=orthogonalEdgeStyle;rounded=0;orthogonalLoop=1;jettySize=auto;html=1;entryX=1;entryY=0.5;entryDx=0;entryDy=0;" edge="1" parent="1" source="l32V7I5E5iRShW_feiCo-14" target="l32V7I5E5iRShW_feiCo-4">
          <mxGeometry relative="1" as="geometry">
            <mxPoint x="570" y="480" as="targetPoint" />
            <Array as="points">
              <mxPoint x="530" y="480" />
              <mxPoint x="530" y="165" />
            </Array>
          </mxGeometry>
        </mxCell>
        <mxCell id="l32V7I5E5iRShW_feiCo-14" value="&lt;font style=&quot;vertical-align: inherit;&quot;&gt;&lt;font style=&quot;vertical-align: inherit;&quot;&gt;不是有效日期&lt;/font&gt;&lt;/font&gt;" style="ellipse;whiteSpace=wrap;html=1;" vertex="1" parent="1">
          <mxGeometry x="415" y="440" width="90" height="80" as="geometry" />
        </mxCell>
      </root>
    </mxGraphModel>
  </diagram>
</mxfile>
